<svg width="820" height="826" viewBox="0 0 820 826" fill="none" xmlns="http://www.w3.org/2000/svg">
<g clip-path="url(#clip0_758_11756)">
<path d="M819.83 413.09C818.62 648.15 626.66 831.44 398.52 825.09C179.73 819.12 -2.94016 638.56 -0.00015517 407C2.99984 175.53 193.09 -5.2 419.59 0.109999C637 5.24 819 183.06 819.83 413.09ZM182.94 403.09C199.94 421.5 204.05 441.3 194.45 463.18C192.09 468.59 194.63 470.55 197.95 473.37C230.071 500.661 265.726 523.497 303.95 541.26C375.69 574.83 451.39 587.76 530.25 583.48C543.68 582.73 555.04 582.27 558.25 564.04C559.88 554.91 570.82 547.35 577.83 539.32C579.59 537.32 582.41 536.2 584.89 534.57C558.64 421.9 501.32 329.46 411.39 257.44C384.69 275.71 363 274.59 337.5 253C275.195 290.58 222.324 341.929 182.94 403.11V403.09ZM578.63 628.68C571.81 620.44 565.98 613 559.63 605.99C558.699 605.081 557.593 604.371 556.38 603.904C555.166 603.436 553.87 603.22 552.57 603.27C506.153 608.542 459.214 607.009 413.24 598.72C327.04 583.37 250.83 546.72 184.24 490.1C178.75 485.46 174.97 484.92 168.44 487.59C161.672 490.322 154.389 491.547 147.1 491.18C139.43 490.7 136.8 493.56 134.4 500.18C120.41 539.275 111.288 579.945 107.24 621.27C106.933 625.615 108.087 629.937 110.52 633.55C133.289 665.332 161.122 693.159 192.91 715.92C271.437 771.807 358.65 794.43 454.55 783.79C474.39 781.62 490.11 776.38 503.18 759.23C534.31 718.31 560.78 675.14 578.63 628.68ZM649.46 558.55C688.32 545.12 724.3 526.2 758.55 503.78C769.13 496.86 774.81 488.78 775.61 476.34C776.25 466.52 778.32 456.77 779.22 446.94C786.9 364.42 768.65 287.82 726.03 216.94C724.406 213.891 721.833 211.455 718.7 210C677.244 195.963 633.879 188.378 590.12 187.51C588.12 187.51 585 188.02 584.21 189.43C579.91 196.81 576 204.43 572.45 212.2C571.77 213.7 572.91 216.39 573.87 218.2C624.22 313.04 642.09 413.94 628.62 520.2C627.23 531.14 626.87 539.53 638.21 545.42C642.66 547.67 645.27 553.45 649.46 558.55ZM148.67 159.39C143.02 161.31 135.54 161.6 132.01 165.48C102.773 197.682 79.8853 235.119 64.5499 275.82C63.1235 279.552 62.9967 283.657 64.1898 287.47C78.789 324.649 98.3606 359.678 122.37 391.6C123.85 393.52 128.52 394.05 131.59 393.82C138.82 393.31 146.25 390.31 153.14 391.35C161.48 392.6 165.69 390.24 170.14 383.48C208.027 326.304 257.54 277.756 315.45 241C323.39 235.94 330.92 232.08 326.45 220.72C325.845 218.541 325.997 216.222 326.88 214.14C329.54 207.34 326.22 204.54 320.47 201.91C266 177.11 209 163.67 148.67 159.39ZM496.45 143.72C462.525 103.935 422.394 69.8931 377.61 42.91C374.84 41.4823 371.7 40.9345 368.61 41.34C305.466 48.045 245.205 71.2753 193.9 108.69C181.48 117.69 169.9 127.75 157.9 137.33C220.518 142.571 281.674 159.083 338.42 186.07C363.81 162.73 391.04 163.23 414.87 186.28C416.213 187.328 417.763 188.08 419.417 188.487C421.072 188.894 422.794 188.946 424.47 188.64C439.32 185.05 453.87 180.08 468.8 176.93C478.74 174.82 486.53 172.77 487.89 160.47C488.58 154.9 493.21 149.8 496.43 143.66L496.45 143.72ZM605.84 524C606.66 518.9 607.53 514.87 607.99 510.78C613.061 465.328 611.819 419.392 604.3 374.28C595.862 324.199 579.375 275.814 555.48 231C554.554 229.764 553.343 228.77 551.95 228.103C550.557 227.437 549.023 227.116 547.48 227.17C520.75 231.56 503.34 223.56 489.48 200.57C488.421 199.328 487.081 198.358 485.571 197.741C484.061 197.123 482.425 196.876 480.8 197.02C468.33 199.53 456.09 203.18 443.67 205.96C433.1 208.34 424.06 211.41 426.67 225.34C426.909 227.912 426.38 230.498 425.15 232.77C422.73 237.93 425.15 240.45 428.99 243.69C497.164 298.276 549.71 369.902 581.31 451.32C590.45 474.62 597.36 498.81 605.76 524.01L605.84 524ZM415.66 39.49C416.49 40.95 416.66 41.66 417.12 41.97C451.964 66.3421 483.684 94.899 511.57 127C513.32 129 518.21 129.67 521.17 129C547.23 123.24 569.76 134 580.76 158.59C583.19 164 586.26 164.98 591.56 165.36C610.64 166.74 629.73 168.22 648.67 170.81C665.56 173.11 682.23 176.93 699.31 180.14C635.91 94.42 522 38.5 415.66 39.49ZM86.6599 597.11C88.0199 595.19 88.5799 594.77 88.6599 594.21C94.2179 556.996 103.649 520.464 116.8 485.21C117.037 484.095 117.018 482.94 116.744 481.833C116.47 480.727 115.949 479.696 115.22 478.82C95.4598 457.71 94.3999 434.91 107.55 412.3C88.3799 380.06 69.7398 348.84 50.5498 316.74C26.9398 414.74 38.0699 507.68 86.6599 597.11ZM761.41 529.54C728.881 549.244 694.549 565.806 658.88 579C657.625 579.737 656.555 580.751 655.751 581.964C654.947 583.177 654.43 584.557 654.24 586C652.32 606.43 641.78 620.54 623.53 628.77C618.89 630.86 617.58 633.15 617.47 637.95C617.1 655.22 616.47 672.49 615.55 689.66C614.82 701.33 613.19 712.94 611.71 726.66C684.65 677.09 734.55 612.29 761.41 529.54ZM527.73 768.21C544.43 760.72 561.39 752.76 578.68 745.53C585.21 742.8 587.8 738.39 588.68 731.96C590.45 718.68 592.83 705.46 594.11 692.12C595.48 678.12 595.88 664.12 596.63 651.38L527.73 768.21Z" fill="white"/>
</g>
<defs>
<clipPath id="clip0_758_11756">
<rect width="819.83" height="825.27" fill="white"/>
</clipPath>
</defs>
</svg>
