<?xml version="1.0" encoding="UTF-8" standalone="no"?>
<!DOCTYPE svg PUBLIC "-//W3C//DTD SVG 1.1//EN"
 "http://www.w3.org/Graphics/SVG/1.1/DTD/svg11.dtd">
<!-- Generated by graphviz version 9.0.0 (20230911.1827)
 -->
<!-- Title: dependency&#45;cruiser output Pages: 1 -->
<svg width="843pt" height="1268pt"
 viewBox="0.00 0.00 843.25 1268.00" xmlns="http://www.w3.org/2000/svg" xmlns:xlink="http://www.w3.org/1999/xlink">
<g id="graph0" class="graph" transform="scale(1 1) rotate(0) translate(4 1264)">
<title>dependency&#45;cruiser output</title>
<polygon fill="white" stroke="none" points="-4,4 -4,-1264 839.25,-1264 839.25,4 -4,4"/>
<g id="clust1" class="cluster">
<title>cluster_app</title>
<path fill="#ffffff" stroke="black" stroke-width="2" d="M20,-922C20,-922 218.5,-922 218.5,-922 224.5,-922 230.5,-928 230.5,-934 230.5,-934 230.5,-1240 230.5,-1240 230.5,-1246 224.5,-1252 218.5,-1252 218.5,-1252 20,-1252 20,-1252 14,-1252 8,-1246 8,-1240 8,-1240 8,-934 8,-934 8,-928 14,-922 20,-922"/>
<text text-anchor="middle" x="119.25" y="-1239.45" font-family="Helvetica,sans-Serif" font-weight="bold" font-size="9.00">app</text>
</g>
<g id="clust2" class="cluster">
<title>cluster_app/[institute]</title>
<path fill="#ffffff" stroke="black" stroke-width="2" d="M28,-989C28,-989 91,-989 91,-989 97,-989 103,-995 103,-1001 103,-1001 103,-1185 103,-1185 103,-1191 97,-1197 91,-1197 91,-1197 28,-1197 28,-1197 22,-1197 16,-1191 16,-1185 16,-1185 16,-1001 16,-1001 16,-995 22,-989 28,-989"/>
<text text-anchor="middle" x="59.5" y="-1184.45" font-family="Helvetica,sans-Serif" font-weight="bold" font-size="9.00">[institute]</text>
</g>
<g id="clust3" class="cluster">
<title>cluster_app/[institute]/[department]</title>
<path fill="#ffffff" stroke="black" stroke-width="2" d="M36,-1025C36,-1025 83,-1025 83,-1025 89,-1025 95,-1031 95,-1037 95,-1037 95,-1099 95,-1099 95,-1105 89,-1111 83,-1111 83,-1111 36,-1111 36,-1111 30,-1111 24,-1105 24,-1099 24,-1099 24,-1037 24,-1037 24,-1031 30,-1025 36,-1025"/>
<text text-anchor="middle" x="59.5" y="-1098.45" font-family="Helvetica,sans-Serif" font-weight="bold" font-size="9.00">[department]</text>
</g>
<g id="clust16" class="cluster">
<title>cluster_style</title>
<path fill="#ffffff" stroke="black" stroke-width="2" d="M131,-61C131,-61 244.75,-61 244.75,-61 250.75,-61 256.75,-67 256.75,-73 256.75,-73 256.75,-104 256.75,-104 256.75,-110 250.75,-116 244.75,-116 244.75,-116 131,-116 131,-116 125,-116 119,-110 119,-104 119,-104 119,-73 119,-73 119,-67 125,-61 131,-61"/>
<text text-anchor="middle" x="187.88" y="-103.45" font-family="Helvetica,sans-Serif" font-weight="bold" font-size="9.00">style</text>
</g>
<g id="clust15" class="cluster">
<title>cluster_public</title>
<path fill="#ffffff" stroke="black" stroke-width="2" d="M702.12,-8C702.12,-8 786.62,-8 786.62,-8 792.62,-8 798.62,-14 798.62,-20 798.62,-20 798.62,-237 798.62,-237 798.62,-243 792.62,-249 786.62,-249 786.62,-249 702.12,-249 702.12,-249 696.12,-249 690.12,-243 690.12,-237 690.12,-237 690.12,-20 690.12,-20 690.12,-14 696.12,-8 702.12,-8"/>
<text text-anchor="middle" x="744.38" y="-236.45" font-family="Helvetica,sans-Serif" font-weight="bold" font-size="9.00">public</text>
</g>
<g id="clust4" class="cluster">
<title>cluster_components</title>
<path fill="#ffffff" stroke="black" stroke-width="2" d="M156.88,-257C156.88,-257 815.25,-257 815.25,-257 821.25,-257 827.25,-263 827.25,-269 827.25,-269 827.25,-902 827.25,-902 827.25,-908 821.25,-914 815.25,-914 815.25,-914 156.88,-914 156.88,-914 150.88,-914 144.88,-908 144.88,-902 144.88,-902 144.88,-269 144.88,-269 144.88,-263 150.88,-257 156.88,-257"/>
<text text-anchor="middle" x="486.06" y="-901.45" font-family="Helvetica,sans-Serif" font-weight="bold" font-size="9.00">components</text>
</g>
<g id="clust7" class="cluster">
<title>cluster_components/button&#45;and&#45;link</title>
<path fill="#ffffff" stroke="black" stroke-width="2" d="M549.12,-769C549.12,-769 807.25,-769 807.25,-769 813.25,-769 819.25,-775 819.25,-781 819.25,-781 819.25,-812 819.25,-812 819.25,-818 813.25,-824 807.25,-824 807.25,-824 549.12,-824 549.12,-824 543.12,-824 537.12,-818 537.12,-812 537.12,-812 537.12,-781 537.12,-781 537.12,-775 543.12,-769 549.12,-769"/>
<text text-anchor="middle" x="678.19" y="-811.45" font-family="Helvetica,sans-Serif" font-weight="bold" font-size="9.00">button&#45;and&#45;link</text>
</g>
<g id="clust5" class="cluster">
<title>cluster_components/adaptive&#45;grid&#45;table&#45;card</title>
<path fill="#ffffff" stroke="black" stroke-width="2" d="M342.75,-517C342.75,-517 653,-517 653,-517 659,-517 665,-523 665,-529 665,-529 665,-560 665,-560 665,-566 659,-572 653,-572 653,-572 342.75,-572 342.75,-572 336.75,-572 330.75,-566 330.75,-560 330.75,-560 330.75,-529 330.75,-529 330.75,-523 336.75,-517 342.75,-517"/>
<text text-anchor="middle" x="497.88" y="-559.45" font-family="Helvetica,sans-Serif" font-weight="bold" font-size="9.00">adaptive&#45;grid&#45;table&#45;card</text>
</g>
<g id="clust10" class="cluster">
<title>cluster_components/information&#45;focus&#45;module</title>
<path fill="#ffffff" stroke="black" stroke-width="2" d="M342.75,-328C342.75,-328 657.5,-328 657.5,-328 663.5,-328 669.5,-334 669.5,-340 669.5,-340 669.5,-371 669.5,-371 669.5,-377 663.5,-383 657.5,-383 657.5,-383 342.75,-383 342.75,-383 336.75,-383 330.75,-377 330.75,-371 330.75,-371 330.75,-340 330.75,-340 330.75,-334 336.75,-328 342.75,-328"/>
<text text-anchor="middle" x="500.12" y="-370.45" font-family="Helvetica,sans-Serif" font-weight="bold" font-size="9.00">information&#45;focus&#45;module</text>
</g>
<g id="clust6" class="cluster">
<title>cluster_components/aside</title>
<path fill="#ffffff" stroke="black" stroke-width="2" d="M342.75,-706C342.75,-706 615.88,-706 615.88,-706 621.88,-706 627.88,-712 627.88,-718 627.88,-718 627.88,-749 627.88,-749 627.88,-755 621.88,-761 615.88,-761 615.88,-761 342.75,-761 342.75,-761 336.75,-761 330.75,-755 330.75,-749 330.75,-749 330.75,-718 330.75,-718 330.75,-712 336.75,-706 342.75,-706"/>
<text text-anchor="middle" x="479.31" y="-748.45" font-family="Helvetica,sans-Serif" font-weight="bold" font-size="9.00">aside</text>
</g>
<g id="clust9" class="cluster">
<title>cluster_components/header</title>
<path fill="#ffffff" stroke="black" stroke-width="2" d="M164.88,-580C164.88,-580 412.5,-580 412.5,-580 418.5,-580 424.5,-586 424.5,-592 424.5,-592 424.5,-623 424.5,-623 424.5,-629 418.5,-635 412.5,-635 412.5,-635 164.88,-635 164.88,-635 158.88,-635 152.88,-629 152.88,-623 152.88,-623 152.88,-592 152.88,-592 152.88,-586 158.88,-580 164.88,-580"/>
<text text-anchor="middle" x="288.69" y="-622.45" font-family="Helvetica,sans-Serif" font-weight="bold" font-size="9.00">header</text>
</g>
<g id="clust8" class="cluster">
<title>cluster_components/cards</title>
<path fill="#ffffff" stroke="black" stroke-width="2" d="M342.75,-832C342.75,-832 615.88,-832 615.88,-832 621.88,-832 627.88,-838 627.88,-844 627.88,-844 627.88,-875 627.88,-875 627.88,-881 621.88,-887 615.88,-887 615.88,-887 342.75,-887 342.75,-887 336.75,-887 330.75,-881 330.75,-875 330.75,-875 330.75,-844 330.75,-844 330.75,-838 336.75,-832 342.75,-832"/>
<text text-anchor="middle" x="479.31" y="-874.45" font-family="Helvetica,sans-Serif" font-weight="bold" font-size="9.00">cards</text>
</g>
<g id="clust12" class="cluster">
<title>cluster_components/primary&#45;information&#45;component</title>
<path fill="#ffffff" stroke="black" stroke-width="2" d="M164.88,-265C164.88,-265 462.75,-265 462.75,-265 468.75,-265 474.75,-271 474.75,-277 474.75,-277 474.75,-308 474.75,-308 474.75,-314 468.75,-320 462.75,-320 462.75,-320 164.88,-320 164.88,-320 158.88,-320 152.88,-314 152.88,-308 152.88,-308 152.88,-277 152.88,-277 152.88,-271 158.88,-265 164.88,-265"/>
<text text-anchor="middle" x="313.81" y="-307.45" font-family="Helvetica,sans-Serif" font-weight="bold" font-size="9.00">primary&#45;information&#45;component</text>
</g>
<g id="clust11" class="cluster">
<title>cluster_components/informations&#45;blocks</title>
<path fill="#ffffff" stroke="black" stroke-width="2" d="M342.75,-391C342.75,-391 645.12,-391 645.12,-391 651.12,-391 657.12,-397 657.12,-403 657.12,-403 657.12,-434 657.12,-434 657.12,-440 651.12,-446 645.12,-446 645.12,-446 342.75,-446 342.75,-446 336.75,-446 330.75,-440 330.75,-434 330.75,-434 330.75,-403 330.75,-403 330.75,-397 336.75,-391 342.75,-391"/>
<text text-anchor="middle" x="493.94" y="-433.45" font-family="Helvetica,sans-Serif" font-weight="bold" font-size="9.00">informations&#45;blocks</text>
</g>
<g id="clust14" class="cluster">
<title>cluster_components/table&#45;control&#45;panel</title>
<path fill="#ffffff" stroke="black" stroke-width="2" d="M164.88,-454C164.88,-454 436.5,-454 436.5,-454 442.5,-454 448.5,-460 448.5,-466 448.5,-466 448.5,-497 448.5,-497 448.5,-503 442.5,-509 436.5,-509 436.5,-509 164.88,-509 164.88,-509 158.88,-509 152.88,-503 152.88,-497 152.88,-497 152.88,-466 152.88,-466 152.88,-460 158.88,-454 164.88,-454"/>
<text text-anchor="middle" x="300.69" y="-496.45" font-family="Helvetica,sans-Serif" font-weight="bold" font-size="9.00">table&#45;control&#45;panel</text>
</g>
<g id="clust13" class="cluster">
<title>cluster_components/search</title>
<path fill="#ffffff" stroke="black" stroke-width="2" d="M342.75,-643C342.75,-643 618.5,-643 618.5,-643 624.5,-643 630.5,-649 630.5,-655 630.5,-655 630.5,-686 630.5,-686 630.5,-692 624.5,-698 618.5,-698 618.5,-698 342.75,-698 342.75,-698 336.75,-698 330.75,-692 330.75,-686 330.75,-686 330.75,-655 330.75,-655 330.75,-649 336.75,-643 342.75,-643"/>
<text text-anchor="middle" x="480.62" y="-685.45" font-family="Helvetica,sans-Serif" font-weight="bold" font-size="9.00">search</text>
</g>
<!-- app/[institute]/[department]/layout.jsx -->
<g id="node1" class="node">
<title>app/[institute]/[department]/layout.jsx</title>
<g id="a_node1"><a xlink:href="app/[institute]/[department]/layout.jsx" xlink:title="no&#45;orphans">
<path fill="#ccffcc" stroke="orange" d="M79.58,-1083.62C79.58,-1083.62 38.42,-1083.62 38.42,-1083.62 35.21,-1083.62 32,-1080.42 32,-1077.21 32,-1077.21 32,-1070.79 32,-1070.79 32,-1067.58 35.21,-1064.38 38.42,-1064.38 38.42,-1064.38 79.58,-1064.38 79.58,-1064.38 82.79,-1064.38 86,-1067.58 86,-1070.79 86,-1070.79 86,-1077.21 86,-1077.21 86,-1080.42 82.79,-1083.62 79.58,-1083.62"/>
<text text-anchor="start" x="40.25" y="-1071.08" font-family="Helvetica,sans-Serif" font-size="9.00" fill="orange">layout.jsx</text>
</a>
</g>
</g>
<!-- app/[institute]/[department]/page.jsx -->
<g id="node2" class="node">
<title>app/[institute]/[department]/page.jsx</title>
<g id="a_node2"><a xlink:href="app/[institute]/[department]/page.jsx" xlink:title="page.jsx">
<path fill="#ffff77" stroke="black" d="M79.58,-1052.62C79.58,-1052.62 38.42,-1052.62 38.42,-1052.62 35.21,-1052.62 32,-1049.42 32,-1046.21 32,-1046.21 32,-1039.79 32,-1039.79 32,-1036.58 35.21,-1033.38 38.42,-1033.38 38.42,-1033.38 79.58,-1033.38 79.58,-1033.38 82.79,-1033.38 86,-1036.58 86,-1039.79 86,-1039.79 86,-1046.21 86,-1046.21 86,-1049.42 82.79,-1052.62 79.58,-1052.62"/>
<text text-anchor="start" x="41.75" y="-1040.08" font-family="Helvetica,sans-Serif" font-size="9.00">page.jsx</text>
</a>
</g>
</g>
<!-- components/cards/index.jsx -->
<g id="node3" class="node">
<title>components/cards/index.jsx</title>
<g id="a_node3"><a xlink:href="components/cards/index.jsx" xlink:title="index.jsx">
<path fill="#ffff77" stroke="black" d="M386.33,-859.62C386.33,-859.62 345.17,-859.62 345.17,-859.62 341.96,-859.62 338.75,-856.42 338.75,-853.21 338.75,-853.21 338.75,-846.79 338.75,-846.79 338.75,-843.58 341.96,-840.38 345.17,-840.38 345.17,-840.38 386.33,-840.38 386.33,-840.38 389.54,-840.38 392.75,-843.58 392.75,-846.79 392.75,-846.79 392.75,-853.21 392.75,-853.21 392.75,-856.42 389.54,-859.62 386.33,-859.62"/>
<text text-anchor="start" x="348.12" y="-847.08" font-family="Helvetica,sans-Serif" font-size="9.00">index.jsx</text>
</a>
</g>
</g>
<!-- app/[institute]/[department]/page.jsx&#45;&gt;components/cards/index.jsx -->
<g id="edge1" class="edge">
<title>app/[institute]/[department]/page.jsx&#45;&gt;components/cards/index.jsx</title>
<g id="a_edge1"><a xlink:title="not&#45;to&#45;test">
<path fill="none" stroke="red" stroke-width="2" d="M86.39,-1035.72C92,-1033.82 97.79,-1031.57 103,-1029 201.09,-980.73 304.5,-899.64 345.95,-865.69"/>
<polygon fill="red" stroke="red" stroke-width="2" points="347.11,-867.47 350.4,-862.03 344.44,-864.22 347.11,-867.47"/>
</a>
</g>
<text text-anchor="middle" x="204.84" y="-947.48" font-family="Helvetica,sans-Serif" font-size="9.00" fill="red">not&#45;to&#45;test</text>
</g>
<!-- components/primary&#45;information&#45;component/index.jsx -->
<g id="node4" class="node">
<title>components/primary&#45;information&#45;component/index.jsx</title>
<g id="a_node4"><a xlink:href="components/primary-information-component/index.jsx" xlink:title="index.jsx">
<path fill="#ffff77" stroke="black" d="M208.46,-292.62C208.46,-292.62 167.29,-292.62 167.29,-292.62 164.08,-292.62 160.88,-289.42 160.88,-286.21 160.88,-286.21 160.88,-279.79 160.88,-279.79 160.88,-276.58 164.08,-273.38 167.29,-273.38 167.29,-273.38 208.46,-273.38 208.46,-273.38 211.67,-273.38 214.88,-276.58 214.88,-279.79 214.88,-279.79 214.88,-286.21 214.88,-286.21 214.88,-289.42 211.67,-292.62 208.46,-292.62"/>
<text text-anchor="start" x="170.25" y="-280.07" font-family="Helvetica,sans-Serif" font-size="9.00">index.jsx</text>
</a>
</g>
</g>
<!-- app/[institute]/[department]/page.jsx&#45;&gt;components/primary&#45;information&#45;component/index.jsx -->
<g id="edge2" class="edge">
<title>app/[institute]/[department]/page.jsx&#45;&gt;components/primary&#45;information&#45;component/index.jsx</title>
<g id="a_edge2"><a xlink:title="not&#45;to&#45;test">
<path fill="none" stroke="red" stroke-width="2" d="M86.35,-1039.83C92.78,-1037.76 98.96,-1034.41 103,-1029 122.23,-1003.27 112.43,-482.45 119,-451 131,-393.55 161.56,-330.6 177.26,-300.69"/>
<polygon fill="red" stroke="red" stroke-width="2" points="179.05,-301.79 180.01,-295.5 175.34,-299.81 179.05,-301.79"/>
</a>
</g>
<text text-anchor="middle" x="95.43" y="-657.85" font-family="Helvetica,sans-Serif" font-size="9.00" fill="red">not&#45;to&#45;test</text>
</g>
<!-- components/table&#45;control&#45;panel/index.jsx -->
<g id="node5" class="node">
<title>components/table&#45;control&#45;panel/index.jsx</title>
<g id="a_node5"><a xlink:href="components/table-control-panel/index.jsx" xlink:title="index.jsx">
<path fill="#ffff77" stroke="black" d="M208.46,-481.62C208.46,-481.62 167.29,-481.62 167.29,-481.62 164.08,-481.62 160.88,-478.42 160.88,-475.21 160.88,-475.21 160.88,-468.79 160.88,-468.79 160.88,-465.58 164.08,-462.38 167.29,-462.38 167.29,-462.38 208.46,-462.38 208.46,-462.38 211.67,-462.38 214.88,-465.58 214.88,-468.79 214.88,-468.79 214.88,-475.21 214.88,-475.21 214.88,-478.42 211.67,-481.62 208.46,-481.62"/>
<text text-anchor="start" x="170.25" y="-469.07" font-family="Helvetica,sans-Serif" font-size="9.00">index.jsx</text>
</a>
</g>
</g>
<!-- app/[institute]/[department]/page.jsx&#45;&gt;components/table&#45;control&#45;panel/index.jsx -->
<g id="edge3" class="edge">
<title>app/[institute]/[department]/page.jsx&#45;&gt;components/table&#45;control&#45;panel/index.jsx</title>
<g id="a_edge3"><a xlink:title="not&#45;to&#45;test">
<path fill="none" stroke="red" stroke-width="2" d="M86.33,-1039.81C92.75,-1037.74 98.94,-1034.39 103,-1029 133.24,-988.86 103.93,-624.94 119,-577 129.85,-542.48 155.35,-508.39 171.82,-488.81"/>
<polygon fill="red" stroke="red" stroke-width="2" points="173.35,-490.26 175.67,-484.34 170.16,-487.52 173.35,-490.26"/>
</a>
</g>
<text text-anchor="middle" x="95.25" y="-752.74" font-family="Helvetica,sans-Serif" font-size="9.00" fill="red">not&#45;to&#45;test</text>
</g>
<!-- public/NoImage.png -->
<g id="node6" class="node">
<title>public/NoImage.png</title>
<g id="a_node6"><a xlink:href="public/NoImage.png" xlink:title="NoImage.png">
<path fill="#ffffcc" stroke="black" d="M774.08,-35.62C774.08,-35.62 714.67,-35.62 714.67,-35.62 711.46,-35.62 708.25,-32.42 708.25,-29.21 708.25,-29.21 708.25,-22.79 708.25,-22.79 708.25,-19.58 711.46,-16.38 714.67,-16.38 714.67,-16.38 774.08,-16.38 774.08,-16.38 777.29,-16.38 780.5,-19.58 780.5,-22.79 780.5,-22.79 780.5,-29.21 780.5,-29.21 780.5,-32.42 777.29,-35.62 774.08,-35.62"/>
<text text-anchor="start" x="716.25" y="-23.07" font-family="Helvetica,sans-Serif" font-size="9.00">NoImage.png</text>
</a>
</g>
</g>
<!-- app/[institute]/[department]/page.jsx&#45;&gt;public/NoImage.png -->
<g id="edge4" class="edge">
<title>app/[institute]/[department]/page.jsx&#45;&gt;public/NoImage.png</title>
<path fill="none" stroke="#000000" stroke-width="2" stroke-opacity="0.200000" d="M86.38,-1039.85C92.8,-1037.78 98.98,-1034.42 103,-1029 128.4,-994.77 93.45,-296.11 119,-262 272.07,-57.68 502.46,-291.06 669.5,-98 686.24,-78.65 660.19,-59.84 677.5,-41 683.27,-34.72 691.08,-30.8 699.31,-28.4"/>
<polygon fill="#000000" fill-opacity="0.200000" stroke="#000000" stroke-width="2" stroke-opacity="0.200000" points="699.63,-30.48 705.01,-27.09 698.69,-26.38 699.63,-30.48"/>
</g>
<!-- style/style_united.module.scss -->
<g id="node7" class="node">
<title>style/style_united.module.scss</title>
<g id="a_node7"><a xlink:href="style/style_united.module.scss" xlink:title="style_united.module.scss">
<path fill="#ffffcc" stroke="black" d="M242.33,-88.62C242.33,-88.62 133.42,-88.62 133.42,-88.62 130.21,-88.62 127,-85.42 127,-82.21 127,-82.21 127,-75.79 127,-75.79 127,-72.58 130.21,-69.38 133.42,-69.38 133.42,-69.38 242.33,-69.38 242.33,-69.38 245.54,-69.38 248.75,-72.58 248.75,-75.79 248.75,-75.79 248.75,-82.21 248.75,-82.21 248.75,-85.42 245.54,-88.62 242.33,-88.62"/>
<text text-anchor="start" x="135" y="-76.08" font-family="Helvetica,sans-Serif" font-size="9.00">style_united.module.scss</text>
</a>
</g>
</g>
<!-- app/[institute]/[department]/page.jsx&#45;&gt;style/style_united.module.scss -->
<g id="edge5" class="edge">
<title>app/[institute]/[department]/page.jsx&#45;&gt;style/style_united.module.scss</title>
<path fill="none" stroke="#000000" stroke-width="2" stroke-opacity="0.200000" d="M86.39,-1039.86C92.81,-1037.79 98.98,-1034.43 103,-1029 131.3,-990.77 103.95,-218.12 119,-173 129.29,-142.15 153.63,-112.8 170.18,-95.35"/>
<polygon fill="#000000" fill-opacity="0.200000" stroke="#000000" stroke-width="2" stroke-opacity="0.200000" points="171.52,-96.98 174.2,-91.22 168.51,-94.05 171.52,-96.98"/>
</g>
<!-- components/button&#45;and&#45;link/index.jsx -->
<g id="node20" class="node">
<title>components/button&#45;and&#45;link/index.jsx</title>
<g id="a_node20"><a xlink:href="components/button-and-link/index.jsx" xlink:title="index.jsx">
<path fill="#ffff77" stroke="black" d="M592.71,-796.62C592.71,-796.62 551.54,-796.62 551.54,-796.62 548.33,-796.62 545.12,-793.42 545.12,-790.21 545.12,-790.21 545.12,-783.79 545.12,-783.79 545.12,-780.58 548.33,-777.38 551.54,-777.38 551.54,-777.38 592.71,-777.38 592.71,-777.38 595.92,-777.38 599.12,-780.58 599.12,-783.79 599.12,-783.79 599.12,-790.21 599.12,-790.21 599.12,-793.42 595.92,-796.62 592.71,-796.62"/>
<text text-anchor="start" x="554.5" y="-784.08" font-family="Helvetica,sans-Serif" font-size="9.00">index.jsx</text>
</a>
</g>
</g>
<!-- components/cards/index.jsx&#45;&gt;components/button&#45;and&#45;link/index.jsx -->
<g id="edge29" class="edge">
<title>components/cards/index.jsx&#45;&gt;components/button&#45;and&#45;link/index.jsx</title>
<path fill="none" stroke="#000000" stroke-width="2" stroke-opacity="0.200000" d="M393.05,-841.89C429.61,-830.62 495.86,-810.2 536.43,-797.69"/>
<polygon fill="#000000" fill-opacity="0.200000" stroke="#000000" stroke-width="2" stroke-opacity="0.200000" points="536.92,-799.74 542.03,-795.97 535.68,-795.73 536.92,-799.74"/>
</g>
<!-- components/cards/cards.module.scss -->
<g id="node26" class="node">
<title>components/cards/cards.module.scss</title>
<g id="a_node26"><a xlink:href="components/cards/cards.module.scss" xlink:title="cards.module.scss">
<path fill="#ffffcc" stroke="black" d="M613.46,-859.62C613.46,-859.62 530.79,-859.62 530.79,-859.62 527.58,-859.62 524.38,-856.42 524.38,-853.21 524.38,-853.21 524.38,-846.79 524.38,-846.79 524.38,-843.58 527.58,-840.38 530.79,-840.38 530.79,-840.38 613.46,-840.38 613.46,-840.38 616.67,-840.38 619.88,-843.58 619.88,-846.79 619.88,-846.79 619.88,-853.21 619.88,-853.21 619.88,-856.42 616.67,-859.62 613.46,-859.62"/>
<text text-anchor="start" x="532.38" y="-847.08" font-family="Helvetica,sans-Serif" font-size="9.00">cards.module.scss</text>
</a>
</g>
</g>
<!-- components/cards/index.jsx&#45;&gt;components/cards/cards.module.scss -->
<g id="edge28" class="edge">
<title>components/cards/index.jsx&#45;&gt;components/cards/cards.module.scss</title>
<path fill="none" stroke="#000000" stroke-width="2" stroke-opacity="0.200000" d="M393.05,-850C423.82,-850 475.62,-850 515.44,-850"/>
<polygon fill="#000000" fill-opacity="0.200000" stroke="#000000" stroke-width="2" stroke-opacity="0.200000" points="515.23,-852.1 521.23,-850 515.23,-847.9 515.23,-852.1"/>
</g>
<!-- public/NoImageCard.png -->
<g id="node27" class="node">
<title>public/NoImageCard.png</title>
<g id="a_node27"><a xlink:href="public/NoImageCard.png" xlink:title="NoImageCard.png">
<path fill="#ffffcc" stroke="black" d="M784.21,-190.62C784.21,-190.62 704.54,-190.62 704.54,-190.62 701.33,-190.62 698.12,-187.42 698.12,-184.21 698.12,-184.21 698.12,-177.79 698.12,-177.79 698.12,-174.58 701.33,-171.38 704.54,-171.38 704.54,-171.38 784.21,-171.38 784.21,-171.38 787.42,-171.38 790.62,-174.58 790.62,-177.79 790.62,-177.79 790.62,-184.21 790.62,-184.21 790.62,-187.42 787.42,-190.62 784.21,-190.62"/>
<text text-anchor="start" x="706.12" y="-178.07" font-family="Helvetica,sans-Serif" font-size="9.00">NoImageCard.png</text>
</a>
</g>
</g>
<!-- components/cards/index.jsx&#45;&gt;public/NoImageCard.png -->
<g id="edge30" class="edge">
<title>components/cards/index.jsx&#45;&gt;public/NoImageCard.png</title>
<path fill="none" stroke="#000000" stroke-width="2" stroke-opacity="0.200000" d="M388.57,-840.01C414.52,-826.78 456.62,-800.76 474.75,-764 485.54,-742.12 466.66,-343.34 482.75,-325 538.1,-261.91 612.26,-358.38 669.5,-297 684.86,-280.53 662.77,-213.03 677.5,-196 680.89,-192.08 685.08,-189.06 689.68,-186.76"/>
<polygon fill="#000000" fill-opacity="0.200000" stroke="#000000" stroke-width="2" stroke-opacity="0.200000" points="690.16,-188.83 694.94,-184.65 688.59,-184.93 690.16,-188.83"/>
</g>
<!-- components/information&#45;focus&#45;module/index.jsx -->
<g id="node31" class="node">
<title>components/information&#45;focus&#45;module/index.jsx</title>
<g id="a_node31"><a xlink:href="components/information-focus-module/index.jsx" xlink:title="index.jsx">
<path fill="#ffff77" stroke="black" d="M386.33,-355.62C386.33,-355.62 345.17,-355.62 345.17,-355.62 341.96,-355.62 338.75,-352.42 338.75,-349.21 338.75,-349.21 338.75,-342.79 338.75,-342.79 338.75,-339.58 341.96,-336.38 345.17,-336.38 345.17,-336.38 386.33,-336.38 386.33,-336.38 389.54,-336.38 392.75,-339.58 392.75,-342.79 392.75,-342.79 392.75,-349.21 392.75,-349.21 392.75,-352.42 389.54,-355.62 386.33,-355.62"/>
<text text-anchor="start" x="348.12" y="-343.07" font-family="Helvetica,sans-Serif" font-size="9.00">index.jsx</text>
</a>
</g>
</g>
<!-- components/primary&#45;information&#45;component/index.jsx&#45;&gt;components/information&#45;focus&#45;module/index.jsx -->
<g id="edge37" class="edge">
<title>components/primary&#45;information&#45;component/index.jsx&#45;&gt;components/information&#45;focus&#45;module/index.jsx</title>
<path fill="none" stroke="#000000" stroke-width="2" stroke-opacity="0.200000" d="M204.88,-293.01C219.86,-302 243.11,-314.96 264.75,-323 285.65,-330.76 310.02,-336.43 329.47,-340.2"/>
<polygon fill="#000000" fill-opacity="0.200000" stroke="#000000" stroke-width="2" stroke-opacity="0.200000" points="329.05,-342.26 335.33,-341.29 329.82,-338.13 329.05,-342.26"/>
</g>
<!-- components/informations&#45;blocks/index.jsx -->
<g id="node33" class="node">
<title>components/informations&#45;blocks/index.jsx</title>
<g id="a_node33"><a xlink:href="components/informations-blocks/index.jsx" xlink:title="index.jsx">
<path fill="#ffff77" stroke="black" d="M386.33,-418.62C386.33,-418.62 345.17,-418.62 345.17,-418.62 341.96,-418.62 338.75,-415.42 338.75,-412.21 338.75,-412.21 338.75,-405.79 338.75,-405.79 338.75,-402.58 341.96,-399.38 345.17,-399.38 345.17,-399.38 386.33,-399.38 386.33,-399.38 389.54,-399.38 392.75,-402.58 392.75,-405.79 392.75,-405.79 392.75,-412.21 392.75,-412.21 392.75,-415.42 389.54,-418.62 386.33,-418.62"/>
<text text-anchor="start" x="348.12" y="-406.07" font-family="Helvetica,sans-Serif" font-size="9.00">index.jsx</text>
</a>
</g>
</g>
<!-- components/primary&#45;information&#45;component/index.jsx&#45;&gt;components/informations&#45;blocks/index.jsx -->
<g id="edge38" class="edge">
<title>components/primary&#45;information&#45;component/index.jsx&#45;&gt;components/informations&#45;blocks/index.jsx</title>
<path fill="none" stroke="#000000" stroke-width="2" stroke-opacity="0.200000" d="M193.28,-293.06C202.96,-313.94 228.18,-361.99 264.75,-386 283.99,-398.63 309.28,-404.37 329.62,-406.96"/>
<polygon fill="#000000" fill-opacity="0.200000" stroke="#000000" stroke-width="2" stroke-opacity="0.200000" points="329.37,-409.05 335.56,-407.61 329.83,-404.87 329.37,-409.05"/>
</g>
<!-- components/primary&#45;information&#45;component/primary&#45;information&#45;component.module.scss -->
<g id="node35" class="node">
<title>components/primary&#45;information&#45;component/primary&#45;information&#45;component.module.scss</title>
<g id="a_node35"><a xlink:href="components/primary-information-component/primary-information-component.module.scss" xlink:title="primary&#45;information&#45;component.module.scss">
<path fill="#ffffcc" stroke="black" d="M460.33,-292.62C460.33,-292.62 271.17,-292.62 271.17,-292.62 267.96,-292.62 264.75,-289.42 264.75,-286.21 264.75,-286.21 264.75,-279.79 264.75,-279.79 264.75,-276.58 267.96,-273.38 271.17,-273.38 271.17,-273.38 460.33,-273.38 460.33,-273.38 463.54,-273.38 466.75,-276.58 466.75,-279.79 466.75,-279.79 466.75,-286.21 466.75,-286.21 466.75,-289.42 463.54,-292.62 460.33,-292.62"/>
<text text-anchor="start" x="272.75" y="-280.07" font-family="Helvetica,sans-Serif" font-size="9.00">primary&#45;information&#45;component.module.scss</text>
</a>
</g>
</g>
<!-- components/primary&#45;information&#45;component/index.jsx&#45;&gt;components/primary&#45;information&#45;component/primary&#45;information&#45;component.module.scss -->
<g id="edge36" class="edge">
<title>components/primary&#45;information&#45;component/index.jsx&#45;&gt;components/primary&#45;information&#45;component/primary&#45;information&#45;component.module.scss</title>
<path fill="none" stroke="#000000" stroke-width="2" stroke-opacity="0.200000" d="M215.21,-283C226.5,-283 240.52,-283 255.41,-283"/>
<polygon fill="#000000" fill-opacity="0.200000" stroke="#000000" stroke-width="2" stroke-opacity="0.200000" points="255.24,-285.1 261.24,-283 255.24,-280.9 255.24,-285.1"/>
</g>
<!-- components/table&#45;control&#45;panel/index.jsx&#45;&gt;components/cards/index.jsx -->
<g id="edge42" class="edge">
<title>components/table&#45;control&#45;panel/index.jsx&#45;&gt;components/cards/index.jsx</title>
<path fill="none" stroke="#000000" stroke-width="2" stroke-opacity="0.200000" d="M198.08,-482.06C213.57,-499.72 244.37,-538.12 256.75,-577 269.37,-616.63 246.6,-726.58 264.75,-764 280.28,-796.02 313.82,-820.86 337.77,-835.44"/>
<polygon fill="#000000" fill-opacity="0.200000" stroke="#000000" stroke-width="2" stroke-opacity="0.200000" points="336.64,-837.21 342.87,-838.44 338.77,-833.59 336.64,-837.21"/>
</g>
<!-- components/adaptive&#45;grid&#45;table&#45;card/index.jsx -->
<g id="node18" class="node">
<title>components/adaptive&#45;grid&#45;table&#45;card/index.jsx</title>
<g id="a_node18"><a xlink:href="components/adaptive-grid-table-card/index.jsx" xlink:title="index.jsx">
<path fill="#ffff77" stroke="black" d="M386.33,-544.62C386.33,-544.62 345.17,-544.62 345.17,-544.62 341.96,-544.62 338.75,-541.42 338.75,-538.21 338.75,-538.21 338.75,-531.79 338.75,-531.79 338.75,-528.58 341.96,-525.38 345.17,-525.38 345.17,-525.38 386.33,-525.38 386.33,-525.38 389.54,-525.38 392.75,-528.58 392.75,-531.79 392.75,-531.79 392.75,-538.21 392.75,-538.21 392.75,-541.42 389.54,-544.62 386.33,-544.62"/>
<text text-anchor="start" x="348.12" y="-532.08" font-family="Helvetica,sans-Serif" font-size="9.00">index.jsx</text>
</a>
</g>
</g>
<!-- components/table&#45;control&#45;panel/index.jsx&#45;&gt;components/adaptive&#45;grid&#45;table&#45;card/index.jsx -->
<g id="edge41" class="edge">
<title>components/table&#45;control&#45;panel/index.jsx&#45;&gt;components/adaptive&#45;grid&#45;table&#45;card/index.jsx</title>
<path fill="none" stroke="#000000" stroke-width="2" stroke-opacity="0.200000" d="M204.88,-482.01C219.86,-491 243.11,-503.96 264.75,-512 285.65,-519.76 310.02,-525.43 329.47,-529.2"/>
<polygon fill="#000000" fill-opacity="0.200000" stroke="#000000" stroke-width="2" stroke-opacity="0.200000" points="329.05,-531.26 335.33,-530.29 329.82,-527.13 329.05,-531.26"/>
</g>
<!-- components/table&#45;control&#45;panel/table&#45;control&#45;panel.module.scss -->
<g id="node37" class="node">
<title>components/table&#45;control&#45;panel/table&#45;control&#45;panel.module.scss</title>
<g id="a_node37"><a xlink:href="components/table-control-panel/table-control-panel.module.scss" xlink:title="table&#45;control&#45;panel.module.scss">
<path fill="#ffffcc" stroke="black" d="M434.08,-481.62C434.08,-481.62 297.42,-481.62 297.42,-481.62 294.21,-481.62 291,-478.42 291,-475.21 291,-475.21 291,-468.79 291,-468.79 291,-465.58 294.21,-462.38 297.42,-462.38 297.42,-462.38 434.08,-462.38 434.08,-462.38 437.29,-462.38 440.5,-465.58 440.5,-468.79 440.5,-468.79 440.5,-475.21 440.5,-475.21 440.5,-478.42 437.29,-481.62 434.08,-481.62"/>
<text text-anchor="start" x="299" y="-469.07" font-family="Helvetica,sans-Serif" font-size="9.00">table&#45;control&#45;panel.module.scss</text>
</a>
</g>
</g>
<!-- components/table&#45;control&#45;panel/index.jsx&#45;&gt;components/table&#45;control&#45;panel/table&#45;control&#45;panel.module.scss -->
<g id="edge40" class="edge">
<title>components/table&#45;control&#45;panel/index.jsx&#45;&gt;components/table&#45;control&#45;panel/table&#45;control&#45;panel.module.scss</title>
<path fill="none" stroke="#000000" stroke-width="2" stroke-opacity="0.200000" d="M215.21,-472C233.04,-472 257.68,-472 281.81,-472"/>
<polygon fill="#000000" fill-opacity="0.200000" stroke="#000000" stroke-width="2" stroke-opacity="0.200000" points="281.63,-474.1 287.63,-472 281.63,-469.9 281.63,-474.1"/>
</g>
<!-- app/[institute]/layout.jsx -->
<g id="node8" class="node">
<title>app/[institute]/layout.jsx</title>
<g id="a_node8"><a xlink:href="app/[institute]/layout.jsx" xlink:title="no&#45;orphans">
<path fill="#ccffcc" stroke="orange" d="M79.58,-1138.62C79.58,-1138.62 38.42,-1138.62 38.42,-1138.62 35.21,-1138.62 32,-1135.42 32,-1132.21 32,-1132.21 32,-1125.79 32,-1125.79 32,-1122.58 35.21,-1119.38 38.42,-1119.38 38.42,-1119.38 79.58,-1119.38 79.58,-1119.38 82.79,-1119.38 86,-1122.58 86,-1125.79 86,-1125.79 86,-1132.21 86,-1132.21 86,-1135.42 82.79,-1138.62 79.58,-1138.62"/>
<text text-anchor="start" x="40.25" y="-1126.08" font-family="Helvetica,sans-Serif" font-size="9.00" fill="orange">layout.jsx</text>
</a>
</g>
</g>
<!-- app/[institute]/loading.jsx -->
<g id="node9" class="node">
<title>app/[institute]/loading.jsx</title>
<g id="a_node9"><a xlink:href="app/[institute]/loading.jsx" xlink:title="loading.jsx">
<path fill="#ffff77" stroke="black" d="M82.71,-1016.62C82.71,-1016.62 35.29,-1016.62 35.29,-1016.62 32.08,-1016.62 28.88,-1013.42 28.88,-1010.21 28.88,-1010.21 28.88,-1003.79 28.88,-1003.79 28.88,-1000.58 32.08,-997.38 35.29,-997.38 35.29,-997.38 82.71,-997.38 82.71,-997.38 85.92,-997.38 89.12,-1000.58 89.12,-1003.79 89.12,-1003.79 89.12,-1010.21 89.12,-1010.21 89.12,-1013.42 85.92,-1016.62 82.71,-1016.62"/>
<text text-anchor="start" x="36.88" y="-1004.08" font-family="Helvetica,sans-Serif" font-size="9.00">loading.jsx</text>
</a>
</g>
</g>
<!-- app/[institute]/loading.jsx&#45;&gt;components/primary&#45;information&#45;component/index.jsx -->
<g id="edge6" class="edge">
<title>app/[institute]/loading.jsx&#45;&gt;components/primary&#45;information&#45;component/index.jsx</title>
<g id="a_edge6"><a xlink:title="not&#45;to&#45;test">
<path fill="none" stroke="red" stroke-width="2" d="M89.46,-1002.71C94.73,-1000.61 99.61,-997.52 103,-993 121.06,-968.89 112.82,-480.48 119,-451 131.05,-393.56 161.59,-330.6 177.27,-300.69"/>
<polygon fill="red" stroke="red" stroke-width="2" points="179.06,-301.79 180.02,-295.5 175.35,-299.82 179.06,-301.79"/>
</a>
</g>
<text text-anchor="middle" x="95.27" y="-638.95" font-family="Helvetica,sans-Serif" font-size="9.00" fill="red">not&#45;to&#45;test</text>
</g>
<!-- app/[institute]/loading.jsx&#45;&gt;public/NoImage.png -->
<g id="edge7" class="edge">
<title>app/[institute]/loading.jsx&#45;&gt;public/NoImage.png</title>
<path fill="none" stroke="#000000" stroke-width="2" stroke-opacity="0.200000" d="M89.49,-1002.74C94.76,-1000.64 99.63,-997.54 103,-993 130.13,-956.39 89.48,-207.71 119,-173 125.51,-165.35 464.89,-109.91 474.75,-108 561.49,-91.17 604.41,-127.75 669.5,-68 678.72,-59.54 668.37,-49.56 677.5,-41 683.53,-35.34 691.24,-31.66 699.24,-29.3"/>
<polygon fill="#000000" fill-opacity="0.200000" stroke="#000000" stroke-width="2" stroke-opacity="0.200000" points="699.67,-31.36 705.02,-27.93 698.7,-27.27 699.67,-31.36"/>
</g>
<!-- app/[institute]/loading.jsx&#45;&gt;style/style_united.module.scss -->
<g id="edge8" class="edge">
<title>app/[institute]/loading.jsx&#45;&gt;style/style_united.module.scss</title>
<path fill="none" stroke="#000000" stroke-width="2" stroke-opacity="0.200000" d="M89.5,-1002.74C94.76,-1000.64 99.64,-997.54 103,-993 130.98,-955.22 100.62,-190.27 119,-147 128.33,-125.03 148.44,-106.38 164.36,-94.2"/>
<polygon fill="#000000" fill-opacity="0.200000" stroke="#000000" stroke-width="2" stroke-opacity="0.200000" points="165.3,-96.11 168.88,-90.86 162.81,-92.73 165.3,-96.11"/>
</g>
<!-- app/[institute]/page.jsx -->
<g id="node10" class="node">
<title>app/[institute]/page.jsx</title>
<g id="a_node10"><a xlink:href="app/[institute]/page.jsx" xlink:title="page.jsx">
<path fill="#ffff77" stroke="black" d="M79.58,-1169.62C79.58,-1169.62 38.42,-1169.62 38.42,-1169.62 35.21,-1169.62 32,-1166.42 32,-1163.21 32,-1163.21 32,-1156.79 32,-1156.79 32,-1153.58 35.21,-1150.38 38.42,-1150.38 38.42,-1150.38 79.58,-1150.38 79.58,-1150.38 82.79,-1150.38 86,-1153.58 86,-1156.79 86,-1156.79 86,-1163.21 86,-1163.21 86,-1166.42 82.79,-1169.62 79.58,-1169.62"/>
<text text-anchor="start" x="41.75" y="-1157.08" font-family="Helvetica,sans-Serif" font-size="9.00">page.jsx</text>
</a>
</g>
</g>
<!-- app/[institute]/page.jsx&#45;&gt;components/cards/index.jsx -->
<g id="edge9" class="edge">
<title>app/[institute]/page.jsx&#45;&gt;components/cards/index.jsx</title>
<g id="a_edge9"><a xlink:title="not&#45;to&#45;test">
<path fill="none" stroke="red" stroke-width="2" d="M86.25,-1155.58C92.52,-1153.35 98.65,-1150.01 103,-1145 127.06,-1117.29 97.6,-1093.81 119,-1064 160.15,-1006.66 203.15,-1030.92 256.75,-985 298.86,-948.92 336.44,-894.6 354.1,-867.16"/>
<polygon fill="red" stroke="red" stroke-width="2" points="355.66,-868.61 357.11,-862.42 352.12,-866.36 355.66,-868.61"/>
</a>
</g>
<text text-anchor="middle" x="201.8" y="-998.36" font-family="Helvetica,sans-Serif" font-size="9.00" fill="red">not&#45;to&#45;test</text>
</g>
<!-- app/[institute]/page.jsx&#45;&gt;components/primary&#45;information&#45;component/index.jsx -->
<g id="edge10" class="edge">
<title>app/[institute]/page.jsx&#45;&gt;components/primary&#45;information&#45;component/index.jsx</title>
<g id="a_edge10"><a xlink:title="not&#45;to&#45;test">
<path fill="none" stroke="red" stroke-width="2" d="M86.41,-1156.21C92.83,-1153.99 99,-1150.5 103,-1145 125.69,-1113.82 111.21,-488.77 119,-451 130.86,-393.52 161.49,-330.58 177.23,-300.68"/>
<polygon fill="red" stroke="red" stroke-width="2" points="179.02,-301.78 179.99,-295.5 175.31,-299.8 179.02,-301.78"/>
</a>
</g>
<text text-anchor="middle" x="95.94" y="-716.08" font-family="Helvetica,sans-Serif" font-size="9.00" fill="red">not&#45;to&#45;test</text>
</g>
<!-- app/[institute]/page.jsx&#45;&gt;components/table&#45;control&#45;panel/index.jsx -->
<g id="edge11" class="edge">
<title>app/[institute]/page.jsx&#45;&gt;components/table&#45;control&#45;panel/index.jsx</title>
<g id="a_edge11"><a xlink:title="not&#45;to&#45;test">
<path fill="none" stroke="red" stroke-width="2" d="M86.39,-1156.2C92.81,-1153.98 98.98,-1150.49 103,-1145 121.64,-1119.52 109.64,-607.15 119,-577 129.73,-542.44 155.27,-508.37 171.78,-488.8"/>
<polygon fill="red" stroke="red" stroke-width="2" points="173.3,-490.25 175.63,-484.33 170.12,-487.5 173.3,-490.25"/>
</a>
</g>
<text text-anchor="middle" x="93.98" y="-810.81" font-family="Helvetica,sans-Serif" font-size="9.00" fill="red">not&#45;to&#45;test</text>
</g>
<!-- app/[institute]/page.jsx&#45;&gt;style/style_united.module.scss -->
<g id="edge12" class="edge">
<title>app/[institute]/page.jsx&#45;&gt;style/style_united.module.scss</title>
<path fill="none" stroke="#000000" stroke-width="2" stroke-opacity="0.200000" d="M86.43,-1156.23C92.85,-1154.01 99.01,-1150.51 103,-1145 131.77,-1105.26 109.9,-310.21 119,-262 130.9,-199 162.29,-129.16 177.86,-97"/>
<polygon fill="#000000" fill-opacity="0.200000" stroke="#000000" stroke-width="2" stroke-opacity="0.200000" points="179.71,-98 180.46,-91.69 175.94,-96.15 179.71,-98"/>
</g>
<!-- app/globals.scss -->
<g id="node11" class="node">
<title>app/globals.scss</title>
<g id="a_node11"><a xlink:href="app/globals.scss" xlink:title="globals.scss">
<path fill="#ffffcc" stroke="black" d="M216.08,-1224.62C216.08,-1224.62 159.67,-1224.62 159.67,-1224.62 156.46,-1224.62 153.25,-1221.42 153.25,-1218.21 153.25,-1218.21 153.25,-1211.79 153.25,-1211.79 153.25,-1208.58 156.46,-1205.38 159.67,-1205.38 159.67,-1205.38 216.08,-1205.38 216.08,-1205.38 219.29,-1205.38 222.5,-1208.58 222.5,-1211.79 222.5,-1211.79 222.5,-1218.21 222.5,-1218.21 222.5,-1221.42 219.29,-1224.62 216.08,-1224.62"/>
<text text-anchor="start" x="161.25" y="-1212.08" font-family="Helvetica,sans-Serif" font-size="9.00">globals.scss</text>
</a>
</g>
</g>
<!-- app/layout.jsx -->
<g id="node12" class="node">
<title>app/layout.jsx</title>
<g id="a_node12"><a xlink:href="app/layout.jsx" xlink:title="layout.jsx">
<path fill="#ffff77" stroke="black" d="M79.58,-1224.62C79.58,-1224.62 38.42,-1224.62 38.42,-1224.62 35.21,-1224.62 32,-1221.42 32,-1218.21 32,-1218.21 32,-1211.79 32,-1211.79 32,-1208.58 35.21,-1205.38 38.42,-1205.38 38.42,-1205.38 79.58,-1205.38 79.58,-1205.38 82.79,-1205.38 86,-1208.58 86,-1211.79 86,-1211.79 86,-1218.21 86,-1218.21 86,-1221.42 82.79,-1224.62 79.58,-1224.62"/>
<text text-anchor="start" x="40.25" y="-1212.08" font-family="Helvetica,sans-Serif" font-size="9.00">layout.jsx</text>
</a>
</g>
</g>
<!-- app/layout.jsx&#45;&gt;style/style_united.module.scss -->
<g id="edge16" class="edge">
<title>app/layout.jsx&#45;&gt;style/style_united.module.scss</title>
<path fill="none" stroke="#000000" stroke-width="2" stroke-opacity="0.200000" d="M86.43,-1211.23C92.86,-1209.01 99.02,-1205.51 103,-1200 118.27,-1178.88 114.18,-287.61 119,-262 130.86,-198.99 162.27,-129.15 177.85,-97"/>
<polygon fill="#000000" fill-opacity="0.200000" stroke="#000000" stroke-width="2" stroke-opacity="0.200000" points="179.7,-98 180.46,-91.69 175.93,-96.15 179.7,-98"/>
</g>
<!-- app/layout.jsx&#45;&gt;app/globals.scss -->
<g id="edge13" class="edge">
<title>app/layout.jsx&#45;&gt;app/globals.scss</title>
<path fill="none" stroke="#000000" stroke-width="2" stroke-opacity="0.200000" d="M86.29,-1215C102.96,-1215 124.91,-1215 144.05,-1215"/>
<polygon fill="#000000" fill-opacity="0.200000" stroke="#000000" stroke-width="2" stroke-opacity="0.200000" points="143.87,-1217.1 149.87,-1215 143.87,-1212.9 143.87,-1217.1"/>
</g>
<!-- components/aside/index.jsx -->
<g id="node13" class="node">
<title>components/aside/index.jsx</title>
<g id="a_node13"><a xlink:href="components/aside/index.jsx" xlink:title="index.jsx">
<path fill="#ffff77" stroke="black" d="M386.33,-733.62C386.33,-733.62 345.17,-733.62 345.17,-733.62 341.96,-733.62 338.75,-730.42 338.75,-727.21 338.75,-727.21 338.75,-720.79 338.75,-720.79 338.75,-717.58 341.96,-714.38 345.17,-714.38 345.17,-714.38 386.33,-714.38 386.33,-714.38 389.54,-714.38 392.75,-717.58 392.75,-720.79 392.75,-720.79 392.75,-727.21 392.75,-727.21 392.75,-730.42 389.54,-733.62 386.33,-733.62"/>
<text text-anchor="start" x="348.12" y="-721.08" font-family="Helvetica,sans-Serif" font-size="9.00">index.jsx</text>
</a>
</g>
</g>
<!-- app/layout.jsx&#45;&gt;components/aside/index.jsx -->
<g id="edge14" class="edge">
<title>app/layout.jsx&#45;&gt;components/aside/index.jsx</title>
<g id="a_edge14"><a xlink:title="not&#45;to&#45;test">
<path fill="none" stroke="red" stroke-width="2" d="M86.45,-1209.58C92.42,-1207.38 98.36,-1204.3 103,-1200 234.9,-1077.7 165.26,-978.86 264.75,-829 288.37,-793.42 324.6,-758.89 346.35,-739.64"/>
<polygon fill="red" stroke="red" stroke-width="2" points="347.45,-741.46 350.59,-735.94 344.69,-738.3 347.45,-741.46"/>
</a>
</g>
<text text-anchor="middle" x="186.27" y="-960.66" font-family="Helvetica,sans-Serif" font-size="9.00" fill="red">not&#45;to&#45;test</text>
</g>
<!-- components/header/index.jsx -->
<g id="node14" class="node">
<title>components/header/index.jsx</title>
<g id="a_node14"><a xlink:href="components/header/index.jsx" xlink:title="index.jsx">
<path fill="#ffff77" stroke="black" d="M208.46,-607.62C208.46,-607.62 167.29,-607.62 167.29,-607.62 164.08,-607.62 160.88,-604.42 160.88,-601.21 160.88,-601.21 160.88,-594.79 160.88,-594.79 160.88,-591.58 164.08,-588.38 167.29,-588.38 167.29,-588.38 208.46,-588.38 208.46,-588.38 211.67,-588.38 214.88,-591.58 214.88,-594.79 214.88,-594.79 214.88,-601.21 214.88,-601.21 214.88,-604.42 211.67,-607.62 208.46,-607.62"/>
<text text-anchor="start" x="170.25" y="-595.08" font-family="Helvetica,sans-Serif" font-size="9.00">index.jsx</text>
</a>
</g>
</g>
<!-- app/layout.jsx&#45;&gt;components/header/index.jsx -->
<g id="edge15" class="edge">
<title>app/layout.jsx&#45;&gt;components/header/index.jsx</title>
<g id="a_edge15"><a xlink:title="not&#45;to&#45;test">
<path fill="none" stroke="red" stroke-width="2" d="M86.29,-1211.12C92.71,-1208.9 98.91,-1205.43 103,-1200 121.83,-1175.03 114.86,-950 119,-919 134.54,-802.55 169.1,-665.38 181.94,-616.46"/>
<polygon fill="red" stroke="red" stroke-width="2" points="183.93,-617.15 183.43,-610.82 179.87,-616.08 183.93,-617.15"/>
</a>
</g>
<text text-anchor="middle" x="99.98" y="-898.79" font-family="Helvetica,sans-Serif" font-size="9.00" fill="red">not&#45;to&#45;test</text>
</g>
<!-- components/aside/aside.module.scss -->
<g id="node19" class="node">
<title>components/aside/aside.module.scss</title>
<g id="a_node19"><a xlink:href="components/aside/aside.module.scss" xlink:title="aside.module.scss">
<path fill="#ffffcc" stroke="black" d="M613.46,-733.62C613.46,-733.62 530.79,-733.62 530.79,-733.62 527.58,-733.62 524.38,-730.42 524.38,-727.21 524.38,-727.21 524.38,-720.79 524.38,-720.79 524.38,-717.58 527.58,-714.38 530.79,-714.38 530.79,-714.38 613.46,-714.38 613.46,-714.38 616.67,-714.38 619.88,-717.58 619.88,-720.79 619.88,-720.79 619.88,-727.21 619.88,-727.21 619.88,-730.42 616.67,-733.62 613.46,-733.62"/>
<text text-anchor="start" x="532.38" y="-721.08" font-family="Helvetica,sans-Serif" font-size="9.00">aside.module.scss</text>
</a>
</g>
</g>
<!-- components/aside/index.jsx&#45;&gt;components/aside/aside.module.scss -->
<g id="edge21" class="edge">
<title>components/aside/index.jsx&#45;&gt;components/aside/aside.module.scss</title>
<path fill="none" stroke="#000000" stroke-width="2" stroke-opacity="0.200000" d="M393.05,-724C423.82,-724 475.62,-724 515.44,-724"/>
<polygon fill="#000000" fill-opacity="0.200000" stroke="#000000" stroke-width="2" stroke-opacity="0.200000" points="515.23,-726.1 521.23,-724 515.23,-721.9 515.23,-726.1"/>
</g>
<!-- components/aside/index.jsx&#45;&gt;components/button&#45;and&#45;link/index.jsx -->
<g id="edge22" class="edge">
<title>components/aside/index.jsx&#45;&gt;components/button&#45;and&#45;link/index.jsx</title>
<path fill="none" stroke="#000000" stroke-width="2" stroke-opacity="0.200000" d="M392.82,-733.64C416.21,-742.13 451.55,-754.58 482.75,-764 500.17,-769.26 519.72,-774.43 536.01,-778.52"/>
<polygon fill="#000000" fill-opacity="0.200000" stroke="#000000" stroke-width="2" stroke-opacity="0.200000" points="535.41,-780.54 541.74,-779.95 536.43,-776.47 535.41,-780.54"/>
</g>
<!-- public/home.svg -->
<g id="node21" class="node">
<title>public/home.svg</title>
<g id="a_node21"><a xlink:href="public/home.svg" xlink:title="home.svg">
<path fill="#ffffcc" stroke="black" d="M766.21,-159.62C766.21,-159.62 722.54,-159.62 722.54,-159.62 719.33,-159.62 716.12,-156.42 716.12,-153.21 716.12,-153.21 716.12,-146.79 716.12,-146.79 716.12,-143.58 719.33,-140.38 722.54,-140.38 722.54,-140.38 766.21,-140.38 766.21,-140.38 769.42,-140.38 772.62,-143.58 772.62,-146.79 772.62,-146.79 772.62,-153.21 772.62,-153.21 772.62,-156.42 769.42,-159.62 766.21,-159.62"/>
<text text-anchor="start" x="724.12" y="-147.07" font-family="Helvetica,sans-Serif" font-size="9.00">home.svg</text>
</a>
</g>
</g>
<!-- components/aside/index.jsx&#45;&gt;public/home.svg -->
<g id="edge23" class="edge">
<title>components/aside/index.jsx&#45;&gt;public/home.svg</title>
<path fill="none" stroke="#000000" stroke-width="2" stroke-opacity="0.200000" d="M393.15,-726.72C418.38,-727.68 455.34,-724.5 474.75,-701 488.84,-683.95 468.32,-319.76 482.75,-303 537.68,-239.17 612.83,-333.29 669.5,-271 685.4,-253.53 662.08,-182.9 677.5,-165 684.87,-156.45 696.01,-152.2 707.05,-150.24"/>
<polygon fill="#000000" fill-opacity="0.200000" stroke="#000000" stroke-width="2" stroke-opacity="0.200000" points="707.11,-152.35 712.8,-149.5 706.58,-148.18 707.11,-152.35"/>
</g>
<!-- public/resit.svg -->
<g id="node22" class="node">
<title>public/resit.svg</title>
<g id="a_node22"><a xlink:href="public/resit.svg" xlink:title="resit.svg">
<path fill="#ffffcc" stroke="black" d="M764.96,-128.62C764.96,-128.62 723.79,-128.62 723.79,-128.62 720.58,-128.62 717.38,-125.42 717.38,-122.21 717.38,-122.21 717.38,-115.79 717.38,-115.79 717.38,-112.58 720.58,-109.38 723.79,-109.38 723.79,-109.38 764.96,-109.38 764.96,-109.38 768.17,-109.38 771.38,-112.58 771.38,-115.79 771.38,-115.79 771.38,-122.21 771.38,-122.21 771.38,-125.42 768.17,-128.62 764.96,-128.62"/>
<text text-anchor="start" x="727.12" y="-116.08" font-family="Helvetica,sans-Serif" font-size="9.00">resit.svg</text>
</a>
</g>
</g>
<!-- components/aside/index.jsx&#45;&gt;public/resit.svg -->
<g id="edge24" class="edge">
<title>components/aside/index.jsx&#45;&gt;public/resit.svg</title>
<path fill="none" stroke="#000000" stroke-width="2" stroke-opacity="0.200000" d="M393.16,-726.72C418.39,-727.69 455.35,-724.51 474.75,-701 489.92,-682.61 466.98,-289.88 482.75,-272 538.23,-209.11 612.36,-306.39 669.5,-245 686.35,-226.9 661.39,-152.76 677.5,-134 685.17,-125.06 696.96,-120.83 708.45,-118.99"/>
<polygon fill="#000000" fill-opacity="0.200000" stroke="#000000" stroke-width="2" stroke-opacity="0.200000" points="708.38,-121.11 714.11,-118.34 707.91,-116.93 708.38,-121.11"/>
</g>
<!-- public/settings.svg -->
<g id="node23" class="node">
<title>public/settings.svg</title>
<g id="a_node23"><a xlink:href="public/settings.svg" xlink:title="settings.svg">
<path fill="#ffffcc" stroke="black" d="M770.71,-97.62C770.71,-97.62 718.04,-97.62 718.04,-97.62 714.83,-97.62 711.62,-94.42 711.62,-91.21 711.62,-91.21 711.62,-84.79 711.62,-84.79 711.62,-81.58 714.83,-78.38 718.04,-78.38 718.04,-78.38 770.71,-78.38 770.71,-78.38 773.92,-78.38 777.12,-81.58 777.12,-84.79 777.12,-84.79 777.12,-91.21 777.12,-91.21 777.12,-94.42 773.92,-97.62 770.71,-97.62"/>
<text text-anchor="start" x="719.62" y="-85.08" font-family="Helvetica,sans-Serif" font-size="9.00">settings.svg</text>
</a>
</g>
</g>
<!-- components/aside/index.jsx&#45;&gt;public/settings.svg -->
<g id="edge25" class="edge">
<title>components/aside/index.jsx&#45;&gt;public/settings.svg</title>
<path fill="none" stroke="#000000" stroke-width="2" stroke-opacity="0.200000" d="M393.17,-726.73C418.4,-727.7 455.36,-724.52 474.75,-701 490.83,-681.49 466.03,-264.97 482.75,-246 538.2,-183.08 612.46,-280.47 669.5,-219 687.08,-200.06 660.7,-122.63 677.5,-103 683.86,-95.56 693.08,-91.38 702.61,-89.12"/>
<polygon fill="#000000" fill-opacity="0.200000" stroke="#000000" stroke-width="2" stroke-opacity="0.200000" points="702.87,-91.21 708.4,-88.08 702.12,-87.08 702.87,-91.21"/>
</g>
<!-- components/header/header.module.scss -->
<g id="node28" class="node">
<title>components/header/header.module.scss</title>
<g id="a_node28"><a xlink:href="components/header/header.module.scss" xlink:title="header.module.scss">
<path fill="#ffffcc" stroke="black" d="M410.08,-607.62C410.08,-607.62 321.42,-607.62 321.42,-607.62 318.21,-607.62 315,-604.42 315,-601.21 315,-601.21 315,-594.79 315,-594.79 315,-591.58 318.21,-588.38 321.42,-588.38 321.42,-588.38 410.08,-588.38 410.08,-588.38 413.29,-588.38 416.5,-591.58 416.5,-594.79 416.5,-594.79 416.5,-601.21 416.5,-601.21 416.5,-604.42 413.29,-607.62 410.08,-607.62"/>
<text text-anchor="start" x="323" y="-595.08" font-family="Helvetica,sans-Serif" font-size="9.00">header.module.scss</text>
</a>
</g>
</g>
<!-- components/header/index.jsx&#45;&gt;components/header/header.module.scss -->
<g id="edge31" class="edge">
<title>components/header/index.jsx&#45;&gt;components/header/header.module.scss</title>
<path fill="none" stroke="#000000" stroke-width="2" stroke-opacity="0.200000" d="M215.21,-598C239.02,-598 274.94,-598 305.6,-598"/>
<polygon fill="#000000" fill-opacity="0.200000" stroke="#000000" stroke-width="2" stroke-opacity="0.200000" points="305.49,-600.1 311.49,-598 305.49,-595.9 305.49,-600.1"/>
</g>
<!-- components/search/index.jsx -->
<g id="node29" class="node">
<title>components/search/index.jsx</title>
<g id="a_node29"><a xlink:href="components/search/index.jsx" xlink:title="index.jsx">
<path fill="#ffff77" stroke="black" d="M386.33,-670.62C386.33,-670.62 345.17,-670.62 345.17,-670.62 341.96,-670.62 338.75,-667.42 338.75,-664.21 338.75,-664.21 338.75,-657.79 338.75,-657.79 338.75,-654.58 341.96,-651.38 345.17,-651.38 345.17,-651.38 386.33,-651.38 386.33,-651.38 389.54,-651.38 392.75,-654.58 392.75,-657.79 392.75,-657.79 392.75,-664.21 392.75,-664.21 392.75,-667.42 389.54,-670.62 386.33,-670.62"/>
<text text-anchor="start" x="348.12" y="-658.08" font-family="Helvetica,sans-Serif" font-size="9.00">index.jsx</text>
</a>
</g>
</g>
<!-- components/header/index.jsx&#45;&gt;components/search/index.jsx -->
<g id="edge32" class="edge">
<title>components/header/index.jsx&#45;&gt;components/search/index.jsx</title>
<path fill="none" stroke="#000000" stroke-width="2" stroke-opacity="0.200000" d="M204.88,-608.01C219.86,-617 243.11,-629.96 264.75,-638 285.65,-645.76 310.02,-651.43 329.47,-655.2"/>
<polygon fill="#000000" fill-opacity="0.200000" stroke="#000000" stroke-width="2" stroke-opacity="0.200000" points="329.05,-657.26 335.33,-656.29 329.82,-653.13 329.05,-657.26"/>
</g>
<!-- public/Mirea.svg -->
<g id="node30" class="node">
<title>public/Mirea.svg</title>
<g id="a_node30"><a xlink:href="public/Mirea.svg" xlink:title="Mirea.svg">
<path fill="#ffffcc" stroke="black" d="M765.46,-66.62C765.46,-66.62 723.29,-66.62 723.29,-66.62 720.08,-66.62 716.88,-63.42 716.88,-60.21 716.88,-60.21 716.88,-53.79 716.88,-53.79 716.88,-50.58 720.08,-47.38 723.29,-47.38 723.29,-47.38 765.46,-47.38 765.46,-47.38 768.67,-47.38 771.88,-50.58 771.88,-53.79 771.88,-53.79 771.88,-60.21 771.88,-60.21 771.88,-63.42 768.67,-66.62 765.46,-66.62"/>
<text text-anchor="start" x="724.88" y="-54.08" font-family="Helvetica,sans-Serif" font-size="9.00">Mirea.svg</text>
</a>
</g>
</g>
<!-- components/header/index.jsx&#45;&gt;public/Mirea.svg -->
<g id="edge33" class="edge">
<title>components/header/index.jsx&#45;&gt;public/Mirea.svg</title>
<path fill="none" stroke="#000000" stroke-width="2" stroke-opacity="0.200000" d="M200.43,-588.02C216.54,-573.29 245.07,-543.98 256.75,-512 266.28,-485.89 246.71,-283.14 264.75,-262 328.78,-186.93 385.45,-236.4 482.75,-220 524.1,-213.03 641.02,-223.78 669.5,-193 687.8,-173.22 660.01,-92.5 677.5,-72 684.95,-63.27 696.33,-59.02 707.54,-57.11"/>
<polygon fill="#000000" fill-opacity="0.200000" stroke="#000000" stroke-width="2" stroke-opacity="0.200000" points="707.72,-59.2 713.42,-56.39 707.21,-55.03 707.72,-59.2"/>
</g>
<!-- app/loading.jsx -->
<g id="node15" class="node">
<title>app/loading.jsx</title>
<g id="a_node15"><a xlink:href="app/loading.jsx" xlink:title="loading.jsx">
<path fill="#ffff77" stroke="black" d="M82.71,-980.62C82.71,-980.62 35.29,-980.62 35.29,-980.62 32.08,-980.62 28.88,-977.42 28.88,-974.21 28.88,-974.21 28.88,-967.79 28.88,-967.79 28.88,-964.58 32.08,-961.38 35.29,-961.38 35.29,-961.38 82.71,-961.38 82.71,-961.38 85.92,-961.38 89.12,-964.58 89.12,-967.79 89.12,-967.79 89.12,-974.21 89.12,-974.21 89.12,-977.42 85.92,-980.62 82.71,-980.62"/>
<text text-anchor="start" x="36.88" y="-968.08" font-family="Helvetica,sans-Serif" font-size="9.00">loading.jsx</text>
</a>
</g>
</g>
<!-- app/loading.jsx&#45;&gt;components/primary&#45;information&#45;component/index.jsx -->
<g id="edge17" class="edge">
<title>app/loading.jsx&#45;&gt;components/primary&#45;information&#45;component/index.jsx</title>
<g id="a_edge17"><a xlink:title="not&#45;to&#45;test">
<path fill="none" stroke="red" stroke-width="2" d="M89.49,-966C94.75,-963.78 99.63,-960.59 103,-956 119.61,-933.38 113.21,-478.47 119,-451 131.11,-393.57 161.62,-330.61 177.28,-300.69"/>
<polygon fill="red" stroke="red" stroke-width="2" points="179.07,-301.79 180.03,-295.51 175.36,-299.82 179.07,-301.79"/>
</a>
</g>
<text text-anchor="middle" x="95.06" y="-621.09" font-family="Helvetica,sans-Serif" font-size="9.00" fill="red">not&#45;to&#45;test</text>
</g>
<!-- app/loading.jsx&#45;&gt;public/NoImage.png -->
<g id="edge18" class="edge">
<title>app/loading.jsx&#45;&gt;public/NoImage.png</title>
<path fill="none" stroke="#000000" stroke-width="2" stroke-opacity="0.200000" d="M89.53,-966.03C94.79,-963.81 99.66,-960.61 103,-956 129.39,-919.61 90.05,-181.39 119,-147 121.38,-144.17 558.16,-61.13 699.68,-34.28"/>
<polygon fill="#000000" fill-opacity="0.200000" stroke="#000000" stroke-width="2" stroke-opacity="0.200000" points="699.69,-36.42 705.2,-33.24 698.91,-32.29 699.69,-36.42"/>
</g>
<!-- app/loading.jsx&#45;&gt;style/style_united.module.scss -->
<g id="edge19" class="edge">
<title>app/loading.jsx&#45;&gt;style/style_united.module.scss</title>
<path fill="none" stroke="#000000" stroke-width="2" stroke-opacity="0.200000" d="M89.53,-966.04C94.8,-963.81 99.66,-960.61 103,-956 130.23,-918.43 96.03,-161.31 119,-121 125.98,-108.75 138.13,-99.61 150.24,-93.03"/>
<polygon fill="#000000" fill-opacity="0.200000" stroke="#000000" stroke-width="2" stroke-opacity="0.200000" points="151,-95 155.43,-90.43 149.12,-91.24 151,-95"/>
</g>
<!-- app/page.jsx -->
<g id="node16" class="node">
<title>app/page.jsx</title>
<g id="a_node16"><a xlink:href="app/page.jsx" xlink:title="no&#45;orphans">
<path fill="#ccffcc" stroke="orange" d="M79.58,-949.62C79.58,-949.62 38.42,-949.62 38.42,-949.62 35.21,-949.62 32,-946.42 32,-943.21 32,-943.21 32,-936.79 32,-936.79 32,-933.58 35.21,-930.38 38.42,-930.38 38.42,-930.38 79.58,-930.38 79.58,-930.38 82.79,-930.38 86,-933.58 86,-936.79 86,-936.79 86,-943.21 86,-943.21 86,-946.42 82.79,-949.62 79.58,-949.62"/>
<text text-anchor="start" x="41.75" y="-937.08" font-family="Helvetica,sans-Serif" font-size="9.00" fill="orange">page.jsx</text>
</a>
</g>
</g>
<!-- components/adaptive&#45;grid&#45;table&#45;card/adaptive&#45;grid&#45;table&#45;card.module.scss -->
<g id="node17" class="node">
<title>components/adaptive&#45;grid&#45;table&#45;card/adaptive&#45;grid&#45;table&#45;card.module.scss</title>
<g id="a_node17"><a xlink:href="components/adaptive-grid-table-card/adaptive-grid-table-card.module.scss" xlink:title="adaptive&#45;grid&#45;table&#45;card.module.scss">
<path fill="#ffffcc" stroke="black" d="M650.58,-544.62C650.58,-544.62 493.67,-544.62 493.67,-544.62 490.46,-544.62 487.25,-541.42 487.25,-538.21 487.25,-538.21 487.25,-531.79 487.25,-531.79 487.25,-528.58 490.46,-525.38 493.67,-525.38 493.67,-525.38 650.58,-525.38 650.58,-525.38 653.79,-525.38 657,-528.58 657,-531.79 657,-531.79 657,-538.21 657,-538.21 657,-541.42 653.79,-544.62 650.58,-544.62"/>
<text text-anchor="start" x="495.25" y="-532.08" font-family="Helvetica,sans-Serif" font-size="9.00">adaptive&#45;grid&#45;table&#45;card.module.scss</text>
</a>
</g>
</g>
<!-- components/adaptive&#45;grid&#45;table&#45;card/index.jsx&#45;&gt;components/adaptive&#45;grid&#45;table&#45;card/adaptive&#45;grid&#45;table&#45;card.module.scss -->
<g id="edge20" class="edge">
<title>components/adaptive&#45;grid&#45;table&#45;card/index.jsx&#45;&gt;components/adaptive&#45;grid&#45;table&#45;card/adaptive&#45;grid&#45;table&#45;card.module.scss</title>
<path fill="none" stroke="#000000" stroke-width="2" stroke-opacity="0.200000" d="M393.05,-535C414.83,-535 447.14,-535 478.29,-535"/>
<polygon fill="#000000" fill-opacity="0.200000" stroke="#000000" stroke-width="2" stroke-opacity="0.200000" points="478,-537.1 484,-535 478,-532.9 478,-537.1"/>
</g>
<!-- components/button&#45;and&#45;link/button&#45;and&#45;link.module.scss -->
<g id="node24" class="node">
<title>components/button&#45;and&#45;link/button&#45;and&#45;link.module.scss</title>
<g id="a_node24"><a xlink:href="components/button-and-link/button-and-link.module.scss" xlink:title="button&#45;and&#45;link.module.scss">
<path fill="#ffffcc" stroke="black" d="M804.83,-796.62C804.83,-796.62 683.92,-796.62 683.92,-796.62 680.71,-796.62 677.5,-793.42 677.5,-790.21 677.5,-790.21 677.5,-783.79 677.5,-783.79 677.5,-780.58 680.71,-777.38 683.92,-777.38 683.92,-777.38 804.83,-777.38 804.83,-777.38 808.04,-777.38 811.25,-780.58 811.25,-783.79 811.25,-783.79 811.25,-790.21 811.25,-790.21 811.25,-793.42 808.04,-796.62 804.83,-796.62"/>
<text text-anchor="start" x="685.5" y="-784.08" font-family="Helvetica,sans-Serif" font-size="9.00">button&#45;and&#45;link.module.scss</text>
</a>
</g>
</g>
<!-- components/button&#45;and&#45;link/index.jsx&#45;&gt;components/button&#45;and&#45;link/button&#45;and&#45;link.module.scss -->
<g id="edge26" class="edge">
<title>components/button&#45;and&#45;link/index.jsx&#45;&gt;components/button&#45;and&#45;link/button&#45;and&#45;link.module.scss</title>
<path fill="none" stroke="#000000" stroke-width="2" stroke-opacity="0.200000" d="M599.35,-787C617.8,-787 643.47,-787 668.04,-787"/>
<polygon fill="#000000" fill-opacity="0.200000" stroke="#000000" stroke-width="2" stroke-opacity="0.200000" points="668,-789.1 674,-787 668,-784.9 668,-789.1"/>
</g>
<!-- public/chevron.svg -->
<g id="node25" class="node">
<title>public/chevron.svg</title>
<g id="a_node25"><a xlink:href="public/chevron.svg" xlink:title="chevron.svg">
<path fill="#ffffcc" stroke="black" d="M770.33,-221.62C770.33,-221.62 718.42,-221.62 718.42,-221.62 715.21,-221.62 712,-218.42 712,-215.21 712,-215.21 712,-208.79 712,-208.79 712,-205.58 715.21,-202.38 718.42,-202.38 718.42,-202.38 770.33,-202.38 770.33,-202.38 773.54,-202.38 776.75,-205.58 776.75,-208.79 776.75,-208.79 776.75,-215.21 776.75,-215.21 776.75,-218.42 773.54,-221.62 770.33,-221.62"/>
<text text-anchor="start" x="720" y="-209.07" font-family="Helvetica,sans-Serif" font-size="9.00">chevron.svg</text>
</a>
</g>
</g>
<!-- components/button&#45;and&#45;link/index.jsx&#45;&gt;public/chevron.svg -->
<g id="edge27" class="edge">
<title>components/button&#45;and&#45;link/index.jsx&#45;&gt;public/chevron.svg</title>
<path fill="none" stroke="#000000" stroke-width="2" stroke-opacity="0.200000" d="M599.24,-788.3C621.28,-787.87 651.97,-783.4 669.5,-764 742.37,-683.35 744.23,-318.58 743.6,-230.96"/>
<polygon fill="#000000" fill-opacity="0.200000" stroke="#000000" stroke-width="2" stroke-opacity="0.200000" points="745.7,-231.11 743.54,-225.13 741.5,-231.15 745.7,-231.11"/>
</g>
<!-- components/search/search.module.scss -->
<g id="node36" class="node">
<title>components/search/search.module.scss</title>
<g id="a_node36"><a xlink:href="components/search/search.module.scss" xlink:title="search.module.scss">
<path fill="#ffffcc" stroke="black" d="M616.08,-670.62C616.08,-670.62 528.17,-670.62 528.17,-670.62 524.96,-670.62 521.75,-667.42 521.75,-664.21 521.75,-664.21 521.75,-657.79 521.75,-657.79 521.75,-654.58 524.96,-651.38 528.17,-651.38 528.17,-651.38 616.08,-651.38 616.08,-651.38 619.29,-651.38 622.5,-654.58 622.5,-657.79 622.5,-657.79 622.5,-664.21 622.5,-664.21 622.5,-667.42 619.29,-670.62 616.08,-670.62"/>
<text text-anchor="start" x="529.75" y="-658.08" font-family="Helvetica,sans-Serif" font-size="9.00">search.module.scss</text>
</a>
</g>
</g>
<!-- components/search/index.jsx&#45;&gt;components/search/search.module.scss -->
<g id="edge39" class="edge">
<title>components/search/index.jsx&#45;&gt;components/search/search.module.scss</title>
<path fill="none" stroke="#000000" stroke-width="2" stroke-opacity="0.200000" d="M393.05,-661C423.12,-661 473.27,-661 512.7,-661"/>
<polygon fill="#000000" fill-opacity="0.200000" stroke="#000000" stroke-width="2" stroke-opacity="0.200000" points="512.42,-663.1 518.42,-661 512.42,-658.9 512.42,-663.1"/>
</g>
<!-- components/information&#45;focus&#45;module/information&#45;focus&#45;module.module.scss -->
<g id="node32" class="node">
<title>components/information&#45;focus&#45;module/information&#45;focus&#45;module.module.scss</title>
<g id="a_node32"><a xlink:href="components/information-focus-module/information-focus-module.module.scss" xlink:title="information&#45;focus&#45;module.module.scss">
<path fill="#ffffcc" stroke="black" d="M655.08,-355.62C655.08,-355.62 489.17,-355.62 489.17,-355.62 485.96,-355.62 482.75,-352.42 482.75,-349.21 482.75,-349.21 482.75,-342.79 482.75,-342.79 482.75,-339.58 485.96,-336.38 489.17,-336.38 489.17,-336.38 655.08,-336.38 655.08,-336.38 658.29,-336.38 661.5,-339.58 661.5,-342.79 661.5,-342.79 661.5,-349.21 661.5,-349.21 661.5,-352.42 658.29,-355.62 655.08,-355.62"/>
<text text-anchor="start" x="490.75" y="-343.07" font-family="Helvetica,sans-Serif" font-size="9.00">information&#45;focus&#45;module.module.scss</text>
</a>
</g>
</g>
<!-- components/information&#45;focus&#45;module/index.jsx&#45;&gt;components/information&#45;focus&#45;module/information&#45;focus&#45;module.module.scss -->
<g id="edge34" class="edge">
<title>components/information&#45;focus&#45;module/index.jsx&#45;&gt;components/information&#45;focus&#45;module/information&#45;focus&#45;module.module.scss</title>
<path fill="none" stroke="#000000" stroke-width="2" stroke-opacity="0.200000" d="M393.05,-346C413.75,-346 443.98,-346 473.67,-346"/>
<polygon fill="#000000" fill-opacity="0.200000" stroke="#000000" stroke-width="2" stroke-opacity="0.200000" points="473.41,-348.1 479.41,-346 473.41,-343.9 473.41,-348.1"/>
</g>
<!-- components/informations&#45;blocks/informations&#45;blocks.module.scss -->
<g id="node34" class="node">
<title>components/informations&#45;blocks/informations&#45;blocks.module.scss</title>
<g id="a_node34"><a xlink:href="components/informations-blocks/informations-blocks.module.scss" xlink:title="informations&#45;blocks.module.scss">
<path fill="#ffffcc" stroke="black" d="M642.71,-418.62C642.71,-418.62 501.54,-418.62 501.54,-418.62 498.33,-418.62 495.12,-415.42 495.12,-412.21 495.12,-412.21 495.12,-405.79 495.12,-405.79 495.12,-402.58 498.33,-399.38 501.54,-399.38 501.54,-399.38 642.71,-399.38 642.71,-399.38 645.92,-399.38 649.12,-402.58 649.12,-405.79 649.12,-405.79 649.12,-412.21 649.12,-412.21 649.12,-415.42 645.92,-418.62 642.71,-418.62"/>
<text text-anchor="start" x="503.12" y="-406.07" font-family="Helvetica,sans-Serif" font-size="9.00">informations&#45;blocks.module.scss</text>
</a>
</g>
</g>
<!-- components/informations&#45;blocks/index.jsx&#45;&gt;components/informations&#45;blocks/informations&#45;blocks.module.scss -->
<g id="edge35" class="edge">
<title>components/informations&#45;blocks/index.jsx&#45;&gt;components/informations&#45;blocks/informations&#45;blocks.module.scss</title>
<path fill="none" stroke="#000000" stroke-width="2" stroke-opacity="0.200000" d="M393.05,-409C416.6,-409 452.48,-409 485.88,-409"/>
<polygon fill="#000000" fill-opacity="0.200000" stroke="#000000" stroke-width="2" stroke-opacity="0.200000" points="485.73,-411.1 491.73,-409 485.73,-406.9 485.73,-411.1"/>
</g>
</g>
</svg>
