<svg width="20" height="20" viewBox="0 0 20 20" fill="none" xmlns="http://www.w3.org/2000/svg">
<path d="M12.232 4.23216C12.7009 3.76326 13.3369 3.49983 14 3.49983C14.6631 3.49983 15.2991 3.76326 15.768 4.23216C16.2369 4.70107 16.5003 5.33704 16.5003 6.00016C16.5003 6.66329 16.2369 7.29926 15.768 7.76816L14.543 8.99216C14.4064 9.13368 14.3309 9.32317 14.3327 9.51982C14.3345 9.71646 14.4135 9.90454 14.5526 10.0435C14.6917 10.1825 14.8799 10.2613 15.0765 10.2629C15.2732 10.2645 15.4626 10.1889 15.604 10.0522L16.828 8.82816C17.5566 8.07376 17.9598 7.06335 17.9507 6.01456C17.9416 4.96577 17.5209 3.96252 16.7793 3.22089C16.0376 2.47926 15.0344 2.05858 13.9856 2.04947C12.9368 2.04035 11.9264 2.44353 11.172 3.17216L8.172 6.17216C7.78234 6.56185 7.47741 7.02786 7.27633 7.54094C7.07525 8.05403 6.98236 8.60313 7.00349 9.15381C7.02462 9.70448 7.1593 10.2449 7.3991 10.741C7.6389 11.2372 7.97863 11.6785 8.397 12.0372C8.54832 12.1635 8.74329 12.2252 8.93974 12.2089C9.13618 12.1925 9.31831 12.0995 9.44671 11.95C9.57512 11.8004 9.63948 11.6063 9.62587 11.4097C9.61226 11.213 9.52178 11.0296 9.374 10.8992C9.11221 10.6751 8.89958 10.3993 8.74945 10.0891C8.59932 9.77891 8.51494 9.44104 8.50161 9.0967C8.48827 8.75235 8.54627 8.40897 8.67196 8.08811C8.79766 7.76724 8.98832 7.47583 9.232 7.23216L12.232 4.23216Z" fill="#268BD9"/>
<path d="M11.603 7.96285C11.4517 7.83651 11.2567 7.77483 11.0603 7.79115C10.8638 7.80747 10.6817 7.90047 10.5533 8.05003C10.4249 8.19959 10.3605 8.3937 10.3741 8.59035C10.3877 8.787 10.4782 8.97039 10.626 9.10085C10.8878 9.32494 11.1004 9.60073 11.2506 9.91092C11.4007 10.2211 11.4851 10.559 11.4984 10.9033C11.5117 11.2477 11.4537 11.591 11.328 11.9119C11.2023 12.2328 11.0117 12.5242 10.768 12.7678L7.768 15.7678C7.2991 16.2367 6.66313 16.5002 6 16.5002C5.33688 16.5002 4.70091 16.2367 4.232 15.7678C3.7631 15.2989 3.49967 14.663 3.49967 13.9998C3.49967 13.3367 3.7631 12.7007 4.232 12.2318L5.457 11.0078C5.59356 10.8663 5.66907 10.6768 5.66726 10.4802C5.66546 10.2835 5.5865 10.0955 5.44738 9.95648C5.30825 9.81749 5.12011 9.7387 4.92346 9.73709C4.72681 9.73547 4.53739 9.81116 4.396 9.94785L3.172 11.1718C2.78996 11.5408 2.48523 11.9822 2.2756 12.4702C2.06596 12.9582 1.95562 13.4831 1.951 14.0142C1.94639 14.5454 2.04759 15.0721 2.24872 15.5637C2.44984 16.0552 2.74685 16.5019 3.12242 16.8774C3.498 17.253 3.9446 17.55 4.43619 17.7511C4.92777 17.9523 5.45449 18.0535 5.98561 18.0488C6.51673 18.0442 7.04161 17.9339 7.52962 17.7243C8.01764 17.5146 8.45902 17.2099 8.828 16.8278L11.828 13.8278C12.2177 13.4382 12.5226 12.9722 12.7237 12.4591C12.9247 11.946 13.0176 11.3969 12.9965 10.8462C12.9754 10.2955 12.8407 9.75516 12.6009 9.25898C12.3611 8.76281 12.0214 8.32154 11.603 7.96285Z" fill="#268BD9"/>
</svg>
