<svg width="24" height="24" viewBox="0 0 24 24" fill="none" xmlns="http://www.w3.org/2000/svg">
<path fill-rule="evenodd" clip-rule="evenodd" d="M10.008 2.16475C10.0624 1.89282 10.2092 1.6481 10.4236 1.47222C10.638 1.29633 10.9067 1.20012 11.184 1.19995H12.816C13.0933 1.20012 13.362 1.29633 13.5764 1.47222C13.7908 1.6481 13.9377 1.89282 13.992 2.16475L14.346 3.93235C14.9424 4.10515 15.5112 4.34275 16.0452 4.63675L17.5452 3.63595C17.7761 3.48202 18.0531 3.41284 18.3292 3.44019C18.6053 3.46754 18.8634 3.58972 19.0596 3.78595L20.214 4.94035C20.4102 5.13652 20.5324 5.39462 20.5598 5.67073C20.5871 5.94684 20.5179 6.2239 20.364 6.45475L19.3632 7.95475C19.6572 8.48875 19.8948 9.05755 20.0676 9.65395L21.8352 10.0068C22.1071 10.0611 22.3519 10.208 22.5277 10.4224C22.7036 10.6367 22.7998 10.9054 22.8 11.1828V12.816C22.7998 13.0933 22.7036 13.362 22.5277 13.5763C22.3519 13.7907 22.1071 13.9376 21.8352 13.992L20.0676 14.346C19.8962 14.9366 19.6599 15.5065 19.3632 16.0452L20.364 17.5452C20.5179 17.776 20.5871 18.0531 20.5598 18.3292C20.5324 18.6053 20.4102 18.8634 20.214 19.0596L19.0596 20.2139C18.8634 20.4102 18.6053 20.5324 18.3292 20.5597C18.0531 20.5871 17.7761 20.5179 17.5452 20.3639L16.0452 19.3631C15.5065 19.6599 14.9366 19.8961 14.346 20.0675L13.9932 21.8351C13.9389 22.1071 13.792 22.3518 13.5776 22.5277C13.3632 22.7036 13.0945 22.7998 12.8172 22.7999H11.184C10.9067 22.7998 10.638 22.7036 10.4236 22.5277C10.2092 22.3518 10.0624 22.1071 10.008 21.8351L9.65401 20.0675C9.06339 19.8961 8.49354 19.6598 7.95481 19.3631L6.45481 20.3639C6.22396 20.5179 5.94691 20.5871 5.67079 20.5597C5.39468 20.5324 5.13658 20.4102 4.94041 20.2139L3.78601 19.0596C3.58978 18.8634 3.4676 18.6053 3.44025 18.3292C3.4129 18.0531 3.48208 17.776 3.63601 17.5452L4.63681 16.0452C4.34014 15.5064 4.10391 14.9366 3.93241 14.346L2.16481 13.9932C1.89268 13.9388 1.64781 13.7917 1.4719 13.5771C1.29598 13.3624 1.1999 13.0935 1.20001 12.816V11.184C1.20018 10.9066 1.29639 10.6379 1.47228 10.4236C1.64817 10.2092 1.89288 10.0623 2.16481 10.008L3.93241 9.65395C4.10521 9.05755 4.34281 8.48875 4.63681 7.95475L3.63601 6.45475C3.48208 6.2239 3.4129 5.94684 3.44025 5.67073C3.4676 5.39462 3.58978 5.13652 3.78601 4.94035L4.94041 3.78595C5.13665 3.58943 5.39499 3.46705 5.67137 3.4397C5.94774 3.41235 6.22505 3.48171 6.45601 3.63595L7.95601 4.63675C8.49474 4.34008 9.06459 4.10385 9.65521 3.93235L10.008 2.16475ZM15.6 12C15.6 12.9547 15.2207 13.8704 14.5456 14.5455C13.8705 15.2207 12.9548 15.6 12 15.6C11.0452 15.6 10.1296 15.2207 9.45443 14.5455C8.7793 13.8704 8.40001 12.9547 8.40001 12C8.40001 11.0452 8.7793 10.1295 9.45443 9.45437C10.1296 8.77924 11.0452 8.39995 12 8.39995C12.9548 8.39995 13.8705 8.77924 14.5456 9.45437C15.2207 10.1295 15.6 11.0452 15.6 12Z" fill="white"/>
</svg>
